<svg xmlns="http://www.w3.org/2000/svg" xmlns:svg="http://www.w3.org/2000/svg" id="svg5" width="228.969" height="197.164" version="1.1" viewBox="0 0 60.581 52.166"><g id="layer1" transform="translate(-10.210799,-133.17276)"><path style="fill:#000;stroke-width:.264583" id="path908" d="m 14.43141,180.7674 c 0.521166,-1.36237 0.900571,-2.64368 0.895991,-4.08375 l -0.04372,-13.7494 c -0.05299,-16.66246 0.0054,-24.21924 0.209698,-25.1671 0.356051,-1.65173 1.76506,-3.40347 3.297419,-4.09949 1.015827,-0.4614 2.302655,-0.48773 24.110863,-0.49323 25.68952,-0.006 24.70226,-0.0733 26.33218,1.78305 1.62055,1.84571 1.56288,1.10607 1.55654,19.96462 -0.005,16.18654 -0.0363,17.33911 -0.4913,18.3309 -0.59174,1.28995 -1.65798,2.37846 -3.0713,3.13545 -1.04937,0.56206 -1.25078,0.56942 -17.20138,0.62883 l -16.13959,0.0601 c -7.118884,0.21447 -7.403273,-0.47028 -11.257611,2.65509 -7.338517,5.39902 -12.499166,6.30578 -12.417444,5.18259 1.076051,-0.95369 3.100848,-1.19308 4.219658,-4.14766 z"/></g></svg>