<?xml version="1.0" encoding="UTF-8" standalone="no"?>
<!-- Exported by Character Map UWP -->

<svg
   height="100%"
   viewBox="192 0 640 1024"
   width="100%"
   version="1.1"
   id="svg4"
   sodipodi:docname="Segoe Fluent Icons Normal - Calligraphy Pen.svg"
   inkscape:version="1.1 (c68e22c387, 2021-05-23)"
   xmlns:inkscape="http://www.inkscape.org/namespaces/inkscape"
   xmlns:sodipodi="http://sodipodi.sourceforge.net/DTD/sodipodi-0.dtd"
   xmlns:xlink="http://www.w3.org/1999/xlink"
   xmlns="http://www.w3.org/2000/svg"
   xmlns:svg="http://www.w3.org/2000/svg">
  <defs
     id="defs8">
    <linearGradient
       inkscape:collect="always"
       id="linearGradient3274">
      <stop
         style="stop-color:#803300;stop-opacity:1;"
         offset="0"
         id="stop3270" />
      <stop
         style="stop-color:#d38d5f;stop-opacity:1"
         offset="1"
         id="stop3272" />
    </linearGradient>
    <linearGradient
       inkscape:collect="always"
       id="linearGradient1427">
      <stop
         style="stop-color:#e7c642;stop-opacity:1;"
         offset="0"
         id="stop1423" />
      <stop
         style="stop-color:#b39a33;stop-opacity:1"
         offset="1"
         id="stop1425" />
    </linearGradient>
    <linearGradient
       inkscape:collect="always"
       xlink:href="#linearGradient1427"
       id="linearGradient1429"
       x1="504.96219"
       y1="419.92212"
       x2="194.12601"
       y2="843.3631"
       gradientUnits="userSpaceOnUse" />
    <linearGradient
       inkscape:collect="always"
       xlink:href="#linearGradient3274"
       id="linearGradient3276"
       x1="209.84143"
       y1="186.61787"
       x2="391.48282"
       y2="-122.75309"
       gradientUnits="userSpaceOnUse" />
  </defs>
  <sodipodi:namedview
     id="namedview6"
     pagecolor="#ffffff"
     bordercolor="#666666"
     borderopacity="1.0"
     inkscape:pageshadow="2"
     inkscape:pageopacity="0.0"
     inkscape:pagecheckerboard="0"
     showgrid="false"
     inkscape:zoom="0.60283615"
     inkscape:cx="-476.08293"
     inkscape:cy="432.95346"
     inkscape:window-width="3840"
     inkscape:window-height="2126"
     inkscape:window-x="-11"
     inkscape:window-y="-11"
     inkscape:window-maximized="1"
     inkscape:current-layer="svg4" />
  <path
     style="fill:url(#linearGradient1429);stroke-width:0.586483;fill-opacity:1"
     d="M 352.18328,747.72033 V 567.92296 l 4.2514,-2.88931 c 4.93861,-3.35635 11.54487,-9.70822 14.89951,-14.32575 12.06356,-16.60505 15.79191,-35.83003 10.74826,-55.42268 -1.75741,-6.82682 -7.35267,-17.82774 -12.00374,-23.60066 -18.3571,-22.78495 -50.82019,-30.39384 -76.97399,-18.04163 -17.77021,8.39271 -30.02181,22.98492 -35.45523,42.22878 -1.81429,6.42576 -2.13184,21.68792 -0.60403,29.03092 3.42123,16.4433 13.63927,31.60174 27.50699,40.80661 l 3.11765,2.06938 v 179.56307 c 0,150.55512 -0.12737,179.3762 -0.78844,178.40621 C 284.52595,922.29152 76.889909,567.25076 74.923851,563.3173 63.572051,540.60588 62.28511,510.56305 71.653192,486.96584 72.573319,484.64814 97.471065,431.8076 126.98152,369.54241 l 53.65536,-113.20943 139.58305,-0.013 139.58305,-0.013 53.63,113.62427 c 29.49651,62.49334 54.62869,116.45871 55.8493,119.92305 3.53114,10.02214 4.63563,16.27407 5.00022,28.30373 0.48561,16.02287 -1.80737,28.59771 -7.61671,41.77053 -1.42795,3.2379 -47.18236,81.95395 -105.09157,180.79991 -56.4094,96.28591 -104.09893,177.70318 -105.97675,180.92726 l -3.41419,5.8619 z"
     id="path979"
     transform="translate(192)" />
  <path
     style="fill:url(#linearGradient3276);fill-opacity:1;stroke-width:0.586483"
     d="m 89.731959,191.09731 c -8.531803,-1.60478 -18.221427,-9.27308 -22.173207,-17.54771 -1.142381,-2.39202 -2.360953,-5.91514 -2.707938,-7.82913 -0.420525,-2.31965 -0.630187,-21.48389 -0.628796,-57.47538 0.155451,-47.54182 -0.725306,-53.044705 0.01272,-92.996522 0.294605,-16.7734249 -0.0961,-67.313402 0.206979,-68.943871 1.511915,-8.133543 3.036074,-11.234764 7.816135,-15.903567 2.54061,-2.481475 3.851817,-3.253109 7.210666,-4.243414 15.511274,-4.573262 54.899612,-10.583961 76.564282,-6.213198 31.87617,6.430893 55.07859,19.430911 84.91406,47.576256 35.21587,35.264215 74.46218,15.883141 116.04516,5.44195 13.72272,-3.468242 28.44235,-8.035221 47.74456,-14.813441 31.03237,-10.897424 42.98676,-13.95174 62.39746,-15.94239 26.44356,-2.7119 47.98375,1.308351 68.06107,12.70288 21.19384,12.02819 34.41481,36.9829387 40.89216,55.646928 -0.27296,111.212159 -0.68993,110.964189 -1.05801,155.781549 -2.35755,11.41334 -13.05399,22.1639 -24.45637,24.58011 -3.41222,0.72306 -35.8778,0.83355 -230.93945,0.78593 -139.01381,-0.034 -228.105438,-0.26916 -229.901481,-0.60698 z"
     id="path1900"
     transform="translate(192)"
     sodipodi:nodetypes="sssccssssccsssccsss" />
</svg>
