<?xml version="1.0" encoding="UTF-8" standalone="no"?>
<!-- Exported by Character Map UWP -->

<svg
   height="100%"
   viewBox="0 64 1024 897"
   width="100%"
   version="1.1"
   id="svg4"
   sodipodi:docname="Segoe Fluent Icons Normal - Sustainable.svg"
   inkscape:version="1.1 (c68e22c387, 2021-05-23)"
   xmlns:inkscape="http://www.inkscape.org/namespaces/inkscape"
   xmlns:sodipodi="http://sodipodi.sourceforge.net/DTD/sodipodi-0.dtd"
   xmlns:xlink="http://www.w3.org/1999/xlink"
   xmlns="http://www.w3.org/2000/svg"
   xmlns:svg="http://www.w3.org/2000/svg">
  <defs
     id="defs8">
    <linearGradient
       inkscape:collect="always"
       id="linearGradient3233">
      <stop
         style="stop-color:#5aa02c;stop-opacity:1;"
         offset="0"
         id="stop3229" />
      <stop
         style="stop-color:#66ff00;stop-opacity:1"
         offset="1"
         id="stop3231" />
    </linearGradient>
    <linearGradient
       inkscape:collect="always"
       xlink:href="#linearGradient3233"
       id="linearGradient3235"
       x1="619.57733"
       y1="729.51892"
       x2="973.03436"
       y2="-11.302405"
       gradientUnits="userSpaceOnUse" />
    <linearGradient
       inkscape:collect="always"
       xlink:href="#linearGradient3233"
       id="linearGradient3693"
       x1="160.28867"
       y1="493.19586"
       x2="552.79041"
       y2="75.006874"
       gradientUnits="userSpaceOnUse" />
  </defs>
  <sodipodi:namedview
     id="namedview6"
     pagecolor="#ffffff"
     bordercolor="#666666"
     borderopacity="1.0"
     inkscape:pageshadow="2"
     inkscape:pageopacity="0.0"
     inkscape:pagecheckerboard="0"
     showgrid="false"
     inkscape:zoom="1.9464883"
     inkscape:cx="531.21306"
     inkscape:cy="451.06873"
     inkscape:window-width="3840"
     inkscape:window-height="2126"
     inkscape:window-x="-11"
     inkscape:window-y="-11"
     inkscape:window-maximized="1"
     inkscape:current-layer="svg4" />
  <path
     style="fill:url(#linearGradient3693);stroke-width:1.02749;fill-opacity:1"
     d="M 286.88336,573.8306 C 260.46332,570.63391 235.62023,563.13115 210.63574,550.8034 182.99259,537.16383 163.97908,523.82204 142.44942,502.95704 101.19301,462.9743 75.825511,414.23072 66.541349,357.09984 65.068076,348.03393 64.818393,330.84195 64.488829,215.7732 64.21723,120.94336 64.433126,83.491265 65.270673,80.14433 c 1.561226,-6.238842 5.507971,-11.138391 10.890138,-13.519179 4.336972,-1.918449 8.131416,-1.962524 138.309039,-1.606563 132.18642,0.361454 133.99326,0.393614 145.39897,2.587955 63.78603,12.271768 115.23791,41.108637 154.27556,86.465747 l 6.45097,7.49525 -12.42871,6.55446 c -55.9021,29.48077 -102.38,72.32389 -135.14064,124.57205 -4.20304,6.7032 -8.68839,14.34164 -9.96744,16.97432 l -2.32556,4.78669 -58.60877,-58.53609 c -65.93036,-65.84862 -63.82474,-64.12057 -78.1311,-64.12057 -22.93677,0 -38.20165,22.36676 -30.1856,44.22921 2.06534,5.63287 5.81519,9.58935 71.07336,74.98973 l 68.89298,69.04311 -2.2378,8.16557 c -14.48284,52.84667 -15.62225,115.64784 -3.09653,170.67281 1.7296,7.59806 3.37626,14.41803 3.65926,15.1555 0.69207,1.80354 -29.70353,1.65312 -45.21544,-0.22373 z"
     id="path65"
     transform="translate(0,64)" />
  <path
     style="fill:url(#linearGradient3235);stroke-width:1.02749;fill-opacity:1"
     d="m 652.97079,766.92773 c -1.97792,-0.234 -8.21993,-0.91238 -13.87113,-1.5075 -49.43467,-5.20592 -104.83059,-27.79182 -143.33506,-58.44025 l -2.56872,-2.04462 103.40355,-103.55789 C 696.63335,501.19425 700.07671,497.61869 702.26525,491.65464 c 4.49671,-12.25409 1.74432,-25.00912 -7.41146,-34.34589 -6.61038,-6.74106 -12.90872,-9.30242 -22.87441,-9.30242 -14.85384,0 -6.97854,-6.97522 -121.89877,107.96659 l -102.954,102.97332 -2.45753,-2.98773 c -4.79811,-5.83326 -19.71177,-28.8134 -24.6109,-37.92243 -16.44969,-30.5851 -27.69569,-64.33206 -32.76706,-98.32728 -2.24143,-15.02515 -3.05711,-50.02463 -1.54153,-66.14433 7.45248,-79.26406 47.62116,-151.87066 111.2284,-201.05004 40.57764,-31.37352 89.1018,-51.32243 142.12167,-58.42807 12.92971,-1.73282 292.11171,-2.56128 300.15881,-0.89071 7.45837,1.54835 13.52796,6.26231 17.07916,13.26455 l 2.8256,5.57152 -10e-4,143.40767 c -10e-4,155.81282 -0.004,155.90328 -5.7997,183.43976 -15.2421,72.42081 -60.09528,138.53748 -121.91427,179.70999 -37.47639,24.95991 -77.9984,40.49989 -120.9377,46.37902 -11.26306,1.5421 -49.93574,2.85914 -57.53952,1.95957 z"
     id="path104"
     transform="translate(0,64)" />
</svg>
